<svg xmlns:xlink="http://www.w3.org/1999/xlink" xmlns="http://www.w3.org/2000/svg" id="Layer_1" data-name="Layer 1" width="1080" height="1080" viewBox="0 0 1080 1080"><defs><style>.cls-1{fill:#51a6da;}.cls-2,.cls-3,.cls-5{fill:none;stroke:#fff;stroke-linecap:round;stroke-miterlimit:10;}.cls-2{stroke-width:29.27px;}.cls-3{stroke-width:15.15px;}.cls-4{opacity:0.8;}.cls-5{stroke-width:8.43px;}.cls-6{opacity:0.7;}.cls-7{fill:#d0e8f4;}.cls-8{fill:#8bc0aa;}.cls-9{fill:#60a286;}</style></defs><circle class="cls-1" cx="538.08" cy="526.68" r="144.85"/><path class="cls-2" d="M565.24,431.89s77.13,22.76,72.07,105"/><circle class="cls-1" cx="560.37" cy="268.98" r="74.98"/><path class="cls-3" d="M574.43,219.91s39.92,11.78,37.31,54.33"/><g class="cls-4"><circle class="cls-1" cx="348.79" cy="358.11" r="41.73"/><path class="cls-5" d="M356.62,330.8s22.22,6.56,20.76,30.23"/></g><g class="cls-4"><circle class="cls-1" cx="699.75" cy="377.67" r="41.73"/><path class="cls-5" d="M707.58,350.37s22.22,6.55,20.76,30.23"/></g><g class="cls-6"><circle class="cls-1" cx="458.49" cy="146.82" r="25.59"/></g><path class="cls-7" d="M539.3,504.21s-115.8-73.9-295.41-34.63V819.51s197-7.61,295.41,64.92Z"/><path class="cls-7" d="M539.3,504.21s116.36-73.9,296.81-34.63V819.51S638.22,811.9,539.3,884.43Z"/><path class="cls-8" d="M507.69,533.05s-117.31-75.68-299.23-31.71V886.08s199.5-8.52,299.23,72.69Z"/><path class="cls-8" d="M572.31,533.05s117.31-75.68,299.23-31.71V886.08S672,877.56,572.31,958.77Z"/><circle class="cls-8" cx="540" cy="535.94" r="31.94"/><rect class="cls-9" x="507.91" y="533.05" width="64.17" height="425.72"/></svg>