<svg xmlns:xlink="http://www.w3.org/1999/xlink" xmlns="http://www.w3.org/2000/svg" id="Layer_1" data-name="Layer 1" width="1080" height="1080" viewBox="0 0 1080 1080"><defs><style>.cls-1{fill:#51a6da;}.cls-2{fill:#24508c;}.cls-3{fill:none;stroke:#fff;stroke-linecap:round;stroke-miterlimit:10;stroke-width:38.08px;}.cls-4{fill:#3974ca;}.cls-5{fill:#d0e8f4;}</style></defs><path class="cls-1" d="M357.29,202.73H342.74a14.25,14.25,0,0,0-28.5,0v28.5a14.25,14.25,0,1,0,28.5,0h14.55a28.08,28.08,0,0,1,28,28v90.63h28.5V259.28A56.62,56.62,0,0,0,357.29,202.73Z"/><path class="cls-2" d="M561.32,478.07H338.05a12,12,0,0,1-11.95-12v-126a12,12,0,0,1,11.95-12H503.88a12,12,0,0,1,10.88,7l57.44,126A12,12,0,0,1,561.32,478.07Z"/><circle class="cls-1" cx="324.7" cy="617.06" r="188.45"/><path class="cls-3" d="M201.37,581.72S231,481.37,337.92,488"/><path class="cls-4" d="M326.05,428.61H751.37A178.74,178.74,0,0,1,930.11,607.35v19.43A178.74,178.74,0,0,1,751.37,805.52H326.05a0,0,0,0,1,0,0V428.61A0,0,0,0,1,326.05,428.61Z"/><circle class="cls-5" cx="328.19" cy="617.06" r="60.99"/><circle class="cls-5" cx="538.1" cy="617.06" r="60.99"/><circle class="cls-5" cx="738.16" cy="617.06" r="60.99"/><path class="cls-1" d="M954.07,614a19.88,19.88,0,1,1-19.87-19.88A19.86,19.86,0,0,1,954.07,614Z"/><path class="cls-1" d="M934.2,493.23a63.55,63.55,0,0,0,0,109.82Z"/><path class="cls-1" d="M934.2,624.86a63.56,63.56,0,0,1,0,109.83Z"/></svg>