<svg xmlns="http://www.w3.org/2000/svg" xmlns:xlink="http://www.w3.org/1999/xlink" id="Layer_1" data-name="Layer 1" width="1080" height="1080" viewBox="0 0 1080 1080"><defs><style>.cls-1,.cls-5{fill:none;}.cls-2{fill:#496ca4;}.cls-3{fill:#d0e8f4;}.cls-4{fill:#51a6da;}.cls-5{stroke:#fff;stroke-linecap:round;stroke-miterlimit:10;stroke-width:24.48px;}.cls-6{opacity:0.4;}.cls-7{clip-path:url(#clip-path);}.cls-8{fill:#fff;}</style><clipPath id="clip-path"><rect class="cls-1" x="338.03" y="238.83" width="403.95" height="602.34" rx="37.5" transform="translate(262.48 -171.47) rotate(23.69)"/></clipPath></defs><rect class="cls-2" x="295.78" y="193.59" width="488.43" height="692.82" rx="62.92" transform="translate(262.48 -171.47) rotate(23.69)"/><rect class="cls-3" x="342.19" y="239.73" width="399.72" height="602.34" rx="37.3" transform="translate(263.02 -172.21) rotate(23.69)"/><rect class="cls-3" x="337.94" y="238.83" width="404.11" height="602.34" rx="37.5" transform="translate(262.48 -171.47) rotate(23.69)"/><circle class="cls-4" cx="541.04" cy="543.18" r="121.17"/><path class="cls-5" d="M593.71,479.7s51.44,43.36,19.94,104.62"/><g class="cls-6"><g class="cls-7"><polygon class="cls-8" points="929.68 445.42 98.46 767.17 60.94 673.93 892.16 352.18 929.68 445.42"/></g></g><rect class="cls-2" x="555.3" y="246.74" width="203.96" height="51.95" rx="15.41" transform="translate(164.97 -241.12) rotate(23.69)"/></svg>