<svg xmlns="http://www.w3.org/2000/svg" width="262.378" height="32.095" viewBox="0 0 262.378 32.095">
  <g id="Group_9102" data-name="Group 9102" transform="translate(-722.04 -1248.54)">
    <g id="Group_5325" data-name="Group 5325" transform="translate(893.046 1253.043)">
      <path id="Path_11948" data-name="Path 11948" d="M1515.03,1294.2a1.871,1.871,0,0,1-.371-2.822l1.151-1.671q1-1.484,2.822-.482a5.162,5.162,0,0,1,.594.315q.482.278.835.464a8.993,8.993,0,0,0,.928.408,6.527,6.527,0,0,0,1.188.334,7.181,7.181,0,0,0,1.281.111,3.568,3.568,0,0,0,2.1-.52,1.581,1.581,0,0,0,.724-1.337,2.059,2.059,0,0,0-.873-1.578,7.419,7.419,0,0,0-2.172-1.207,28.594,28.594,0,0,1-2.822-1.244,27.354,27.354,0,0,1-2.822-1.615,6.888,6.888,0,0,1-2.172-2.358,6.791,6.791,0,0,1-.872-3.472,7.3,7.3,0,0,1,2.692-5.885,10.218,10.218,0,0,1,6.776-2.246,14.257,14.257,0,0,1,4.1.594,10.35,10.35,0,0,1,3.063,1.374,1.946,1.946,0,0,1,.631,2.785l-.891,1.745q-.855,1.671-2.785.706a10.137,10.137,0,0,0-4.2-1.226q-2.9,0-2.9,1.857a2.035,2.035,0,0,0,.873,1.6,7.661,7.661,0,0,0,2.172,1.188q1.3.483,2.822,1.188a23.5,23.5,0,0,1,2.822,1.541,6.815,6.815,0,0,1,3.045,5.811,7.822,7.822,0,0,1-2.506,5.885,9.454,9.454,0,0,1-6.813,2.395,14.5,14.5,0,0,1-4.845-.817A12.442,12.442,0,0,1,1515.03,1294.2Z" transform="translate(-1514.181 -1269.4)" fill="#27aae1"/>
      <path id="Path_11949" data-name="Path 11949" d="M1607.875,1299.444v-6.98h-.557a1.789,1.789,0,0,1-2-2.042v-.928a1.805,1.805,0,0,1,2.042-2.042h.706V1284a1.8,1.8,0,0,1,2.042-2.042h2.154A1.805,1.805,0,0,1,1614.3,1284v3.453h1.968a1.806,1.806,0,0,1,2.042,2.042v.928a1.789,1.789,0,0,1-2.005,2.042H1614.3v5.792a2.236,2.236,0,0,0,2.228,2.414,2.863,2.863,0,0,1,1.6.575,1.981,1.981,0,0,1,.446,1.467v1.671q0,2.042-2.636,2.042a11.747,11.747,0,0,1-1.931-.167,9.13,9.13,0,0,1-2.116-.65,7.567,7.567,0,0,1-1.987-1.244,5.855,5.855,0,0,1-1.448-2.024A6.91,6.91,0,0,1,1607.875,1299.444Z" transform="translate(-1585.64 -1279.246)" fill="#27aae1"/>
      <path id="Path_11950" data-name="Path 11950" d="M1676.713,1321.046a9.155,9.155,0,0,1-3.119-7.185,9.326,9.326,0,0,1,3.119-7.24,11.037,11.037,0,0,1,7.686-2.822,11.2,11.2,0,0,1,7.741,2.8,9.283,9.283,0,0,1,3.138,7.259,9.153,9.153,0,0,1-3.119,7.185,12.164,12.164,0,0,1-15.446,0Zm3.379-7.185a4.515,4.515,0,0,0,1.262,3.342,4.394,4.394,0,0,0,6.164,0,4.518,4.518,0,0,0,1.262-3.342,4.7,4.7,0,0,0-1.262-3.416,4.3,4.3,0,0,0-6.164,0A4.694,4.694,0,0,0,1680.092,1313.861Z" transform="translate(-1639.18 -1296.373)" fill="#27aae1"/>
      <path id="Path_11951" data-name="Path 11951" d="M1786.593,1322.269v-15.038a1.805,1.805,0,0,1,2.042-2.042h2.079a1.805,1.805,0,0,1,2.042,2.042v1.188l-.074,1.188h.074a8.24,8.24,0,0,1,1.986-3.137,4.281,4.281,0,0,1,3.1-1.467q1.745,0,1.745,2.042v2.079a1.8,1.8,0,0,1-2.042,2.042,3.9,3.9,0,0,0-3.361,1.615,6.823,6.823,0,0,0-1.169,4.1v5.384a1.8,1.8,0,0,1-2.042,2.042h-2.339A1.8,1.8,0,0,1,1786.593,1322.269Z" transform="translate(-1727.785 -1297.317)" fill="#27aae1"/>
      <path id="Path_11952" data-name="Path 11952" d="M1850.406,1313.787a9.939,9.939,0,0,1,2.71-7.147,9.538,9.538,0,0,1,7.24-2.841,8.338,8.338,0,0,1,6.479,2.581,9.343,9.343,0,0,1,2.358,6.553,2.077,2.077,0,0,1-.631,1.448,2.02,2.02,0,0,1-1.522.668h-10.062a3.9,3.9,0,0,0,1.578,2.543,4.879,4.879,0,0,0,2.877.873,7.776,7.776,0,0,0,3.49-.891q1.894-.854,2.748.78l.52.965q.965,1.857-.706,2.785a13.077,13.077,0,0,1-6.572,1.708,10.094,10.094,0,0,1-7.686-2.97A9.893,9.893,0,0,1,1850.406,1313.787Zm6.72-2.413h5.718a2.968,2.968,0,0,0-.724-2.043,2.434,2.434,0,0,0-1.912-.817Q1857.758,1308.514,1857.127,1311.374Z" transform="translate(-1777.822 -1296.373)" fill="#27aae1"/>
    </g>
    <g id="Group_5326" data-name="Group 5326" transform="translate(722.04 1251.964)">
      <path id="Path_11953" data-name="Path 11953" d="M722.04,1290.29v-23.733a1.907,1.907,0,0,1,2.157-2.158h8.159a11.5,11.5,0,0,1,6.924,1.9,6.322,6.322,0,0,1,2.609,5.433,7.229,7.229,0,0,1-.863,3.432,6.291,6.291,0,0,1-2.393,2.53v.078a5.553,5.553,0,0,1,3.315,2.452,7.342,7.342,0,0,1,1.079,3.864,7.087,7.087,0,0,1-3.021,6.316,13.381,13.381,0,0,1-7.649,2.04H724.2A1.907,1.907,0,0,1,722.04,1290.29Zm6.865-15.024h3.531a2.275,2.275,0,0,0,1.844-.745,2.767,2.767,0,0,0,.628-1.844,2.374,2.374,0,0,0-.647-1.726,2.591,2.591,0,0,0-1.942-.667H728.9Zm0,11.3h4.119a2.851,2.851,0,0,0,2.2-.843,2.962,2.962,0,0,0,.785-2.1,2.913,2.913,0,0,0-.745-2.059,2.853,2.853,0,0,0-2.2-.8H728.9Z" transform="translate(-722.04 -1264.4)" fill="#fafafa"/>
      <path id="Path_11954" data-name="Path 11954" d="M831.249,1313.845V1302.9a1.907,1.907,0,0,1,2.158-2.158h2.471a1.907,1.907,0,0,1,2.157,2.158v9.689q0,2.669,2.157,2.668a3.624,3.624,0,0,0,3.177-1.589,6.843,6.843,0,0,0,1.1-3.982V1302.9a1.907,1.907,0,0,1,2.157-2.158H849.1a1.907,1.907,0,0,1,2.157,2.158v15.887a1.907,1.907,0,0,1-2.157,2.158h-2.2a1.89,1.89,0,0,1-2.118-2.158v-.353l.039-.51h-.079a5.993,5.993,0,0,1-2.55,2.55,7.738,7.738,0,0,1-3.766.941,7.437,7.437,0,0,1-5.237-1.785Q831.249,1317.847,831.249,1313.845Z" transform="translate(-807.673 -1292.897)" fill="#fafafa"/>
      <path id="Path_11955" data-name="Path 11955" d="M942.635,1290.29v-23.733a1.907,1.907,0,0,1,2.158-2.158h2.471a1.908,1.908,0,0,1,2.158,2.158v6.041l-.079,1.726h.079a7.033,7.033,0,0,1,.608-.706,7.4,7.4,0,0,1,1.844-1.137,6.953,6.953,0,0,1,3.119-.706,8.142,8.142,0,0,1,6.473,2.923,12.608,12.608,0,0,1-.137,15.279,8.568,8.568,0,0,1-6.649,2.942,8.056,8.056,0,0,1-2.236-.294,6.1,6.1,0,0,1-1.648-.706,8.522,8.522,0,0,1-1.079-.824,4.748,4.748,0,0,1-.647-.686l-.157-.314h-.079a1.667,1.667,0,0,1,.04.392v.157a1.649,1.649,0,0,1-.569,1.314,2.355,2.355,0,0,1-1.589.49h-1.922A1.907,1.907,0,0,1,942.635,1290.29Zm6.59-8a6.028,6.028,0,0,0,1.02,3.589,3.312,3.312,0,0,0,2.864,1.432,3.71,3.71,0,0,0,2.883-1.295,5.166,5.166,0,0,0,1.157-3.569,5.545,5.545,0,0,0-1.1-3.57,3.458,3.458,0,0,0-2.824-1.373,3.718,3.718,0,0,0-2.844,1.255A5.017,5.017,0,0,0,949.225,1282.288Z" transform="translate(-895.013 -1264.4)" fill="#fafafa"/>
      <path id="Path_11956" data-name="Path 11956" d="M1055.3,1290.29v-23.733a1.907,1.907,0,0,1,2.157-2.158h2.471a1.908,1.908,0,0,1,2.158,2.158v6.041l-.078,1.726h.078a7.033,7.033,0,0,1,.608-.706,7.4,7.4,0,0,1,1.844-1.137,6.952,6.952,0,0,1,3.118-.706,8.141,8.141,0,0,1,6.472,2.923,12.607,12.607,0,0,1-.137,15.279,8.567,8.567,0,0,1-6.649,2.942,8.058,8.058,0,0,1-2.236-.294,6.1,6.1,0,0,1-1.647-.706,8.538,8.538,0,0,1-1.079-.824,4.758,4.758,0,0,1-.647-.686l-.157-.314h-.078a1.682,1.682,0,0,1,.039.392v.157a1.649,1.649,0,0,1-.569,1.314,2.354,2.354,0,0,1-1.589.49h-1.922A1.907,1.907,0,0,1,1055.3,1290.29Zm6.59-8a6.028,6.028,0,0,0,1.02,3.589,3.312,3.312,0,0,0,2.864,1.432,3.71,3.71,0,0,0,2.883-1.295,5.167,5.167,0,0,0,1.157-3.569,5.545,5.545,0,0,0-1.1-3.57,3.458,3.458,0,0,0-2.824-1.373,3.718,3.718,0,0,0-2.844,1.255A5.017,5.017,0,0,0,1061.886,1282.288Z" transform="translate(-983.353 -1264.4)" fill="#fafafa"/>
      <path id="Path_11957" data-name="Path 11957" d="M1167.41,1284.995v-18.437a1.907,1.907,0,0,1,2.157-2.158h2.471a1.908,1.908,0,0,1,2.157,2.158v18.123q0,1.844,1.138,2a1.639,1.639,0,0,1,1.569,1.844v1.922a1.941,1.941,0,0,1-2.2,2.2,12.042,12.042,0,0,1-2.648-.255,7.15,7.15,0,0,1-2.275-1,4.619,4.619,0,0,1-1.766-2.354A11.521,11.521,0,0,1,1167.41,1284.995Z" transform="translate(-1071.264 -1264.4)" fill="#fafafa"/>
      <path id="Path_11958" data-name="Path 11958" d="M1217.562,1309.114a10.5,10.5,0,0,1,2.864-7.551,10.078,10.078,0,0,1,7.649-3,8.809,8.809,0,0,1,6.845,2.726,9.87,9.87,0,0,1,2.491,6.924,2.193,2.193,0,0,1-.667,1.53,2.133,2.133,0,0,1-1.608.706h-10.631a4.114,4.114,0,0,0,1.667,2.687,5.157,5.157,0,0,0,3.04.922,8.214,8.214,0,0,0,3.688-.941q2-.9,2.9.824l.549,1.02q1.019,1.962-.745,2.942a13.82,13.82,0,0,1-6.944,1.8,10.664,10.664,0,0,1-8.12-3.138A10.452,10.452,0,0,1,1217.562,1309.114Zm7.1-2.55h6.041a3.134,3.134,0,0,0-.765-2.158,2.571,2.571,0,0,0-2.021-.863Q1225.329,1303.544,1224.662,1306.564Z" transform="translate(-1110.589 -1291.187)" fill="#fafafa"/>
    </g>
    <g id="Group_5327" data-name="Group 5327" transform="translate(854.942 1248.54)">
      <path id="Path_11959" data-name="Path 11959" d="M1353.716,1280.635a16.048,16.048,0,1,1,16.044-16.033A16.038,16.038,0,0,1,1353.716,1280.635Z" transform="translate(-1337.672 -1248.54)" fill="#27aae1"/>
      <path id="Path_11960" data-name="Path 11960" d="M1406.923,1270.763a11.284,11.284,0,0,1,9.655,5.7,11.039,11.039,0,0,1,1.267,3.425,11.458,11.458,0,0,1,.192,1.682,2.371,2.371,0,0,1-.09.973,1.555,1.555,0,0,1-1.277,1.039,1.6,1.6,0,0,1-1.823-1.41c-.029-.272-.012-.544-.036-.816a8.255,8.255,0,0,0-.332-1.72,7.872,7.872,0,0,0-1.4-2.639,8.044,8.044,0,0,0-5.255-2.959,6.175,6.175,0,0,0-.9-.057,1.66,1.66,0,0,1-1.192-.43,1.58,1.58,0,0,1-.5-.937,1.6,1.6,0,0,1,1.406-1.837A1.717,1.717,0,0,1,1406.923,1270.763Z" transform="translate(-1390.63 -1265.965)" fill="#f2f3f3"/>
    </g>
  </g>
</svg>
