<svg xmlns:xlink="http://www.w3.org/1999/xlink" xmlns="http://www.w3.org/2000/svg" width="24" height="25" viewBox="0 0 24 25">
  <g id="Layer_2" data-name="Layer 2" transform="translate(0.178 0.04)">
    <g id="invisible_box" data-name="invisible box" transform="translate(-0.319 -0.44)">
      <rect id="Rectangle_500" data-name="Rectangle 500" width="24" height="25" transform="translate(0.141 0.4)" fill="none"></rect>
    </g>
    <g id="icons_Q2" data-name="icons Q2" transform="translate(1.67 2.824)">
      <path id="Path_11493" data-name="Path 11493" d="M22.965,6.384A1.6,1.6,0,0,0,21.853,5.9H7.109L6.916,4.257A1.45,1.45,0,0,0,5.465,3h-1.5a.967.967,0,1,0,0,1.934H5.03l1.547,13a2.852,2.852,0,0,0-1.4,2.465,2.9,2.9,0,0,0,2.9,2.9,3,3,0,0,0,2.755-1.934h5.124A3,3,0,0,0,18.711,23.3a2.9,2.9,0,0,0,0-5.8,3,3,0,0,0-2.755,1.934H10.831A2.9,2.9,0,0,0,8.462,17.55l-.1-1.015H20.6A1.45,1.45,0,0,0,22,15.278L23.3,7.641a1.74,1.74,0,0,0-.338-1.257ZM19.678,20.4a.967.967,0,1,1-.967-.967A.967.967,0,0,1,19.678,20.4Zm-10.635,0a.967.967,0,1,1-.967-.967A.967.967,0,0,1,9.043,20.4Zm11.118-5.8H8.124L7.351,7.834H21.273Z" transform="translate(-3 -3)" fill="#fef6eb"></path>
    </g>
  </g>
</svg>