<svg width="375" height="349" viewBox="0 0 375 349" fill="none" xmlns="http://www.w3.org/2000/svg">
<g clip-path="url(#clip0_3417_6304)">
<mask id="mask0_3417_6304" style="mask-type:luminance" maskUnits="userSpaceOnUse" x="0" y="0" width="375" height="349">
<path d="M-0.000793457 0H374.449V348.629H-0.000793457V0Z" fill="white"/>
</mask>
<g mask="url(#mask0_3417_6304)">
<path d="M-9.15527e-05 348.629H348.629C347.758 156.459 192.168 0.871 -9.15527e-05 0V348.629Z" fill="#2AA7DE"/>
<path d="M374.252 192.873C375.269 205.297 372.447 217.734 366.169 228.504C359.89 239.273 350.457 247.856 339.145 253.092C327.832 258.329 315.185 259.967 302.911 257.786C290.637 255.604 279.329 249.708 270.514 240.893C261.699 232.079 255.802 220.771 253.619 208.498C251.437 196.224 253.074 183.577 258.31 172.264C263.546 160.95 272.128 151.517 282.897 145.238C293.666 138.959 306.103 136.136 318.527 137.152C332.909 138.339 346.403 144.591 356.607 154.794C366.811 164.998 373.064 178.491 374.252 192.873ZM307.981 155.337C316.86 154.17 325.881 155.814 333.778 160.037C341.675 164.26 348.051 170.85 352.011 178.882C355.971 186.914 357.315 195.985 355.856 204.821C354.397 213.656 350.207 221.813 343.874 228.145C337.542 234.477 329.386 238.667 320.55 240.126C311.715 241.586 302.644 240.241 294.612 236.281C286.58 232.322 279.989 225.946 275.766 218.049C271.543 210.152 269.9 201.131 271.066 192.252C272.303 182.895 276.59 174.208 283.264 167.534C289.937 160.861 298.625 156.574 307.981 155.337Z" fill="#A7D9F0"/>
</g>
</g>
<defs>
<clipPath id="clip0_3417_6304">
<rect width="374.45" height="348.629" fill="white" transform="matrix(-1 0 0 1 374.449 0)"/>
</clipPath>
</defs>
</svg>
