<svg xmlns:xlink="http://www.w3.org/1999/xlink" xmlns="http://www.w3.org/2000/svg" id="Layer_1" data-name="Layer 1" width="1080" height="1080" viewBox="0 0 1080 1080"><defs><style>.cls-1{fill:#e89640;}.cls-2{fill:#efb877;}.cls-3{fill:#51a6da;}.cls-4{fill:none;stroke:#fff;stroke-linecap:round;stroke-miterlimit:10;stroke-width:17.38px;}.cls-5{fill:#3974ca;}</style></defs><path class="cls-1" d="M745.79,385.54c-22.7-67.79-106.2-118.1-205.79-118.1s-183.09,50.31-205.79,118.1Z"/><path class="cls-2" d="M900.18,643.06H179.1l43.36-213.81c10-49.14,50.94-84.24,98.35-84.24H758.48c47.4,0,88.37,35.1,98.34,84.24Z"/><path class="cls-2" d="M223.27,808.18h0c-41.86-9.88-68.24-53.87-58.93-98.26l53.73-256,243.09,57.36-33.36,159C407.24,768.22,315.67,830,223.27,808.18Z"/><path class="cls-2" d="M856.73,808.18h0c41.86-9.88,68.24-53.87,58.93-98.26l-53.73-256L618.84,511.26l33.36,159C672.76,768.22,764.33,830,856.73,808.18Z"/><circle class="cls-3" cx="427.25" cy="656.11" r="86.01"/><path class="cls-4" d="M443.38,599.83s45.8,13.52,42.8,62.32"/><circle class="cls-3" cx="652.75" cy="656.11" r="86.01"/><path class="cls-4" d="M668.87,599.83s45.8,13.52,42.8,62.32"/><rect class="cls-5" x="316.09" y="400.7" width="46.17" height="148.18" rx="23.09"/><rect class="cls-5" x="316.09" y="400.7" width="46.17" height="148.18" rx="23.09" transform="translate(813.97 135.62) rotate(90)"/><circle class="cls-5" cx="636.16" cy="474.79" r="40.85"/><circle class="cls-5" cx="745.51" cy="474.79" r="40.85"/></svg>