<svg xmlns:xlink="http://www.w3.org/1999/xlink" xmlns="http://www.w3.org/2000/svg" id="Layer_1" data-name="Layer 1" width="1080" height="1080" viewBox="0 0 1080 1080"><defs><style>.cls-1{fill:#51a6da;}.cls-2{fill:#e89640;}.cls-3{fill:#fbe4e3;}.cls-4{fill:#efb877;}.cls-5{fill:none;stroke:#fff;stroke-linecap:round;stroke-miterlimit:10;stroke-width:18.57px;}</style></defs><g id="Layer_1-2" data-name="Layer 1"><path class="cls-1" d="M286.75,780.86h0a13.67,13.67,0,0,1,13.68,13.68V899.92a13.68,13.68,0,0,1-13.68,13.68h0a13.68,13.68,0,0,1-13.68-13.68V794.54A13.67,13.67,0,0,1,286.75,780.86Z"/><path class="cls-1" d="M792.65,780.86h0a13.67,13.67,0,0,1,13.68,13.68V899.92a13.68,13.68,0,0,1-13.68,13.68h0A13.69,13.69,0,0,1,779,899.92V794.54A13.68,13.68,0,0,1,792.65,780.86Z"/><path class="cls-2" d="M319.89,234.68h440A26.32,26.32,0,0,1,786.2,261V698.62H293.61V261A26.33,26.33,0,0,1,319.89,234.68Z"/><rect class="cls-2" x="293.61" y="621.09" width="492.6" height="107.38"/><path class="cls-3" d="M786.21,698.62H293.61V591.24c0-53.49,492.6-53.49,492.6,0Z"/><rect class="cls-4" x="293.61" y="591.24" width="492.6" height="107.38"/><path class="cls-4" d="M294.23,799.28h-57c-14.38,0-14.8-374.52-1.35-397.92a22.64,22.64,0,0,0,1.75-3.39c5.06-13.73,56.61-13,56.61,2.22Z"/><path class="cls-4" d="M785.77,799.28h57c14.38,0,14.8-374.52,1.35-397.92a22.64,22.64,0,0,1-1.75-3.39c-5.06-13.73-56.61-13-56.61,2.22Z"/><rect class="cls-4" x="271.4" y="720.85" width="530.77" height="78.42"/></g><circle class="cls-1" cx="694.87" cy="491.74" r="91.93"/><path class="cls-5" d="M735.35,444s38.66,33.32,14.26,79.54"/></svg>