<svg width="24" height="25" viewBox="0 0 24 25" fill="none" xmlns="http://www.w3.org/2000/svg">
<g clip-path="url(#clip0_3397_128)">
<path d="M11.133 19.265C9.61902 19.2597 8.14051 18.8059 6.88417 17.961C5.62783 17.116 4.64997 15.9178 4.07404 14.5176C3.49811 13.1174 3.34993 11.5779 3.64821 10.0936C3.94649 8.60921 4.67785 7.24648 5.74997 6.17743C6.82208 5.10838 8.18689 4.38093 9.67211 4.08691C11.1573 3.79289 12.6963 3.94548 14.0949 4.52541C15.4935 5.10535 16.6889 6.08664 17.5302 7.3454C18.3715 8.60416 18.8211 10.084 18.822 11.598C18.8213 12.6065 18.6217 13.6049 18.2347 14.5362C17.8478 15.4675 17.281 16.3133 16.5669 17.0254C15.8528 17.7375 15.0053 18.3018 14.0729 18.6861C13.1405 19.0704 12.1415 19.2671 11.133 19.265ZM11.128 5.202C9.86359 5.20812 8.62927 5.58867 7.58089 6.29563C6.5325 7.00258 5.71702 8.00425 5.23737 9.17423C4.75772 10.3442 4.63539 11.63 4.88583 12.8695C5.13626 14.1089 5.74823 15.2464 6.64451 16.1383C7.54079 17.0303 8.6812 17.6368 9.92183 17.8812C11.1625 18.1256 12.4477 17.9971 13.6153 17.5118C14.783 17.0265 15.7807 16.2062 16.4826 15.1544C17.1844 14.1026 17.559 12.8665 17.559 11.602C17.553 9.90111 16.8725 8.27209 15.6669 7.07228C14.4612 5.87248 12.8289 5.19987 11.128 5.202Z" fill="white"/>
<path d="M16.9859 18.103C16.9765 17.9749 17.0065 17.847 17.0719 17.7364C17.1374 17.6259 17.2351 17.5381 17.3519 17.4847C17.4688 17.4313 17.5992 17.415 17.7255 17.438C17.8519 17.4609 17.9683 17.522 18.0589 17.613C18.2399 17.79 18.4149 17.974 18.5919 18.155C19.3249 18.903 20.0559 19.655 20.7919 20.395C20.9102 20.5067 20.9825 20.6585 20.9947 20.8207C21.0069 20.9829 20.9581 21.1439 20.8579 21.272C20.8003 21.3418 20.7284 21.3984 20.6471 21.438C20.5657 21.4776 20.4768 21.4992 20.3864 21.5015C20.2959 21.5038 20.2061 21.4866 20.1228 21.4512C20.0396 21.4157 19.9649 21.3628 19.9039 21.296C19.6179 21.008 19.3329 20.715 19.0489 20.425C18.4302 19.7943 17.8112 19.1637 17.1919 18.533C17.0685 18.4226 16.9935 18.2682 16.9829 18.103" fill="white"/>
<path d="M7.02411 11.063C6.95072 11.0627 6.87783 11.0509 6.80811 11.028C6.72261 11 6.64349 10.9553 6.57528 10.8966C6.50707 10.8379 6.45111 10.7664 6.41061 10.686C6.3701 10.6056 6.34585 10.5181 6.33925 10.4283C6.33264 10.3386 6.34381 10.2484 6.37211 10.163C6.61969 9.43251 7.02519 8.76553 7.55977 8.20952C8.09436 7.6535 8.74489 7.22211 9.46511 6.94602C9.54978 6.90986 9.64088 6.89115 9.73296 6.89099C9.82503 6.89084 9.91619 6.90925 10.001 6.94512C10.0858 6.98099 10.1625 7.0336 10.2265 7.09978C10.2905 7.16597 10.3405 7.24438 10.3735 7.33033C10.4066 7.41627 10.4219 7.508 10.4187 7.60002C10.4155 7.69204 10.3937 7.78246 10.3547 7.86588C10.3158 7.9493 10.2604 8.02402 10.1919 8.08555C10.1234 8.14708 10.0432 8.19418 9.95611 8.22402C9.42615 8.42771 8.94753 8.74554 8.55418 9.15496C8.16084 9.56437 7.86242 10.0553 7.68011 10.593C7.63467 10.73 7.5472 10.8491 7.43015 10.9335C7.31309 11.0179 7.17241 11.0632 7.02811 11.063" fill="white"/>
</g>
<defs>
<clipPath id="clip0_3397_128">
<rect width="24" height="24" fill="white" transform="translate(0 0.5)"/>
</clipPath>
</defs>
</svg>
