<svg width="24" height="26" viewBox="0 0 24 26" fill="none" xmlns="http://www.w3.org/2000/svg">
<g clip-path="url(#clip0_3397_135)">
<path d="M21.8132 6.74802C21.5204 6.44701 21.121 6.27318 20.7012 6.26402H5.95719L5.76419 4.62102C5.71715 4.27063 5.54372 3.94949 5.2765 3.718C5.00929 3.48652 4.66671 3.36063 4.31319 3.36402H2.81319C2.55673 3.36402 2.31077 3.4659 2.12942 3.64725C1.94807 3.82859 1.84619 4.07455 1.84619 4.33102C1.84619 4.58748 1.94807 4.83344 2.12942 5.01479C2.31077 5.19614 2.55673 5.29802 2.81319 5.29802H3.87819L5.42519 18.298C4.99719 18.5512 4.64282 18.9119 4.39724 19.3443C4.15166 19.7767 4.0234 20.2658 4.02519 20.763C4.02519 21.5321 4.33073 22.2698 4.87458 22.8136C5.41844 23.3575 6.15606 23.663 6.92519 23.663C7.52516 23.6531 8.10838 23.4636 8.59949 23.1188C9.09061 22.7741 9.46706 22.2899 9.68019 21.729H14.8042C15.0172 22.2901 15.3935 22.7745 15.8847 23.1194C16.3758 23.4644 16.9591 23.6541 17.5592 23.664C18.3283 23.664 19.0659 23.3585 19.6098 22.8146C20.1537 22.2708 20.4592 21.5331 20.4592 20.764C20.4592 19.9949 20.1537 19.2573 19.6098 18.7134C19.0659 18.1696 18.3283 17.864 17.5592 17.864C16.9592 17.8739 16.376 18.0635 15.8849 18.4082C15.3938 18.753 15.0173 19.2371 14.8042 19.798H9.67919C9.4961 19.2963 9.178 18.8549 8.75998 18.5224C8.34197 18.19 7.84026 17.9794 7.31019 17.914L7.21019 16.899H19.4482C19.7929 16.8902 20.1232 16.7588 20.3798 16.5284C20.6363 16.2981 20.8024 15.9838 20.8482 15.642L22.1482 8.00502C22.2024 7.55807 22.0812 7.10751 21.8102 6.74802H21.8132ZM18.5262 20.764C18.5262 20.9553 18.4695 21.1422 18.3632 21.3013C18.257 21.4603 18.1059 21.5842 17.9292 21.6574C17.7526 21.7306 17.5581 21.7498 17.3705 21.7124C17.183 21.6751 17.0107 21.583 16.8754 21.4478C16.7402 21.3126 16.6481 21.1403 16.6108 20.9527C16.5735 20.7651 16.5926 20.5707 16.6658 20.394C16.739 20.2173 16.8629 20.0662 17.022 19.96C17.181 19.8537 17.3679 19.797 17.5592 19.797C17.8157 19.797 18.0616 19.8989 18.243 20.0802C18.4243 20.2616 18.5262 20.5076 18.5262 20.764ZM7.89119 20.764C7.89119 20.9553 7.83448 21.1422 7.72822 21.3013C7.62197 21.4603 7.47094 21.5842 7.29425 21.6574C7.11755 21.7306 6.92312 21.7498 6.73554 21.7124C6.54796 21.6751 6.37566 21.583 6.24042 21.4478C6.10518 21.3126 6.01308 21.1403 5.97577 20.9527C5.93846 20.7651 5.95761 20.5707 6.0308 20.394C6.10399 20.2173 6.22793 20.0662 6.38696 19.96C6.54598 19.8537 6.73294 19.797 6.92419 19.797C7.18066 19.797 7.42662 19.8989 7.60796 20.0802C7.78931 20.2616 7.89119 20.5076 7.89119 20.764ZM19.0092 14.964H6.97219L6.19919 8.19802H20.1212L19.0092 14.964Z" fill="white"/>
</g>
<defs>
<clipPath id="clip0_3397_135">
<rect width="24" height="25" fill="white" transform="translate(0 0.5)"/>
</clipPath>
</defs>
</svg>
