<svg width="24" height="24" viewBox="0 0 24 24" fill="none" xmlns="http://www.w3.org/2000/svg">
<g clip-path="url(#clip0_3398_141)">
<path d="M17.1369 3.83098C17.6756 3.82665 18.2093 3.93397 18.7045 4.14618C19.1997 4.3584 19.6455 4.67089 20.0139 5.06398C20.4043 5.43443 20.715 5.88066 20.927 6.37534C21.139 6.87003 21.2479 7.40277 21.2469 7.94098C21.2469 9.01998 20.5789 10.253 19.2469 11.741L11.9969 19.449L4.75587 11.743C3.41987 10.253 2.75587 9.01998 2.75587 7.94298C2.75409 7.40473 2.86217 6.87178 3.07349 6.37674C3.28481 5.88171 3.59493 5.43501 3.98487 5.06398C4.35325 4.67089 4.79908 4.3584 5.29424 4.14618C5.78941 3.93397 6.32317 3.82665 6.86187 3.83098C7.56036 3.92708 8.22636 4.18651 8.80581 4.58822C9.38526 4.98992 9.86184 5.52259 10.1969 6.14298L11.5329 8.40398C11.585 8.47825 11.6542 8.53888 11.7347 8.58074C11.8152 8.62259 11.9046 8.64445 11.9954 8.64445C12.0861 8.64445 12.1755 8.62259 12.256 8.58074C12.3365 8.53888 12.4058 8.47825 12.4579 8.40398L13.7969 6.14298C14.1324 5.52196 14.6097 4.98891 15.1901 4.58717C15.7705 4.18542 16.4375 3.92634 17.1369 3.83098ZM17.1369 1.72498C16.0749 1.82771 15.0533 2.18481 14.1586 2.76602C13.2639 3.34723 12.5224 4.13546 11.9969 5.06398C11.4718 4.13611 10.7311 3.34829 9.83731 2.76712C8.94352 2.18594 7.92295 1.82849 6.86187 1.72498C6.04821 1.73003 5.2436 1.8961 4.49443 2.21362C3.74526 2.53114 3.06636 2.99381 2.49687 3.57498C1.92235 4.14702 1.46734 4.82762 1.15831 5.57717C0.849294 6.32672 0.692436 7.13024 0.696869 7.94098C0.696869 10.047 2.08387 11.841 3.26587 13.181L11.6399 22.125C11.7359 22.219 11.865 22.2716 11.9994 22.2716C12.1338 22.2716 12.2628 22.219 12.3589 22.125L20.7329 13.186C21.9149 11.85 23.3019 10.052 23.3019 7.94598C23.3032 6.30532 22.6559 4.73066 21.5011 3.56531C20.3462 2.39996 18.7775 1.73844 17.1369 1.72498Z" fill="white"/>
</g>
<defs>
<clipPath id="clip0_3398_141">
<rect width="24" height="24" fill="white"/>
</clipPath>
</defs>
</svg>
