<svg xmlns="http://www.w3.org/2000/svg" xmlns:xlink="http://www.w3.org/1999/xlink" id="Layer_1" data-name="Layer 1" width="1080" height="1080" viewBox="0 0 1080 1080"><defs><style>.cls-1,.cls-3{fill:none;}.cls-2{fill:#51a6da;}.cls-3{stroke:#fff;stroke-linecap:round;stroke-miterlimit:10;stroke-width:20.62px;}.cls-4{fill:#e89640;}.cls-5{fill:#efb877;}.cls-6{fill:#282962;}.cls-7{fill:#f4cb96;}.cls-8{clip-path:url(#clip-path);}</style><clipPath id="clip-path"><path class="cls-1" d="M364.5,856.45,207.32,898.24a5.39,5.39,0,0,1-6.62-6.41l35.59-154.26a5.35,5.35,0,0,1,1.3-2.45l29.27-31.58a5.38,5.38,0,0,1,9.32,4.37L272,739.73a5.38,5.38,0,0,0,4.64,6,5.29,5.29,0,0,0,2.17-.16l39.46-11.31a5.38,5.38,0,0,1,6.64,6.7l-9.09,30.53a5.37,5.37,0,0,0,3.62,6.67,5.25,5.25,0,0,0,2.55.12l33.77-6.23a5.38,5.38,0,0,1,6.28,4.29,5.31,5.31,0,0,1-.22,2.79l-11.71,33.23a5.38,5.38,0,0,0,3.28,6.87,5.49,5.49,0,0,0,2.17.29l33.89-2.41a5.37,5.37,0,0,1,4.32,9L367.1,854.92A5.4,5.4,0,0,1,364.5,856.45Z"/></clipPath></defs><circle class="cls-2" cx="777.36" cy="283.66" r="102.07"/><path class="cls-3" d="M801.36,218.45s53,20,45.21,77.48"/><path class="cls-4" d="M377,844.25,247.57,724.35h0L668.89,270.74l129.39,119.9L377,844.25Z"/><polygon class="cls-5" points="701.77 290.94 267.8 759.27 288.35 778.32 721.79 310.57 701.77 290.94"/><polygon class="cls-5" points="754.77 342.93 323.63 808.2 344.18 827.25 344.21 827.27 774.81 362.58 754.77 342.93"/><rect class="cls-6" x="723.66" y="241.12" width="22.07" height="176.56" transform="translate(-6.65 643.56) rotate(-47.12)"/><path class="cls-7" d="M364.5,856.45,207.32,898.24a5.39,5.39,0,0,1-6.62-6.41l35.59-154.26a5.35,5.35,0,0,1,1.3-2.45l29.27-31.58a5.38,5.38,0,0,1,9.32,4.37L272,739.73a5.38,5.38,0,0,0,4.64,6,5.29,5.29,0,0,0,2.17-.16l39.46-11.31a5.38,5.38,0,0,1,6.64,6.7l-9.09,30.53a5.37,5.37,0,0,0,3.62,6.67,5.25,5.25,0,0,0,2.55.12l33.77-6.23a5.38,5.38,0,0,1,6.28,4.29,5.31,5.31,0,0,1-.22,2.79l-11.71,33.23a5.38,5.38,0,0,0,3.28,6.87,5.49,5.49,0,0,0,2.17.29l33.89-2.41a5.37,5.37,0,0,1,4.32,9L367.1,854.92A5.4,5.4,0,0,1,364.5,856.45Z"/><g class="cls-8"><polygon class="cls-6" points="307.71 890.36 207.66 789.97 178.62 897.04 225.9 928.86 307.71 890.36"/></g></svg>